<mxfile host="app.diagrams.net" modified="2020-10-15T06:19:44.497Z" agent="5.0 (Windows NT 6.1; Win64; x64) AppleWebKit/537.36 (KHTML, like Gecko) Chrome/85.0.4183.102 Safari/537.36" etag="QSvwnKBCK1o6KDJS6x10" version="13.7.5" type="github">
  <diagram id="7nSo9XSUbkOztDkDhjZS" name="第 1 页">
    <mxGraphModel dx="2249" dy="1345" grid="1" gridSize="10" guides="1" tooltips="1" connect="1" arrows="1" fold="1" page="1" pageScale="1" pageWidth="827" pageHeight="583" math="0" shadow="0">
      <root>
        <mxCell id="0" />
        <mxCell id="1" parent="0" />
        <mxCell id="9olRrJjh9QZigTU5JMxW-1" value="&lt;span lang=&quot;EN-US&quot; style=&quot;font-size: 10.5pt ; font-family: &amp;#34;calibri&amp;#34; , &amp;#34;sans-serif&amp;#34;&quot;&gt;3&lt;/span&gt;&lt;span style=&quot;font-size: 10.5pt&quot;&gt;万会员&lt;/span&gt;" style="shape=umlActor;verticalLabelPosition=bottom;verticalAlign=top;html=1;outlineConnect=0;" parent="1" vertex="1">
          <mxGeometry x="280" y="-190" width="60" height="120" as="geometry" />
        </mxCell>
        <mxCell id="9olRrJjh9QZigTU5JMxW-2" value="&lt;span lang=&quot;EN-US&quot; style=&quot;font-size: 10.5pt ; font-family: &amp;#34;calibri&amp;#34; , &amp;#34;sans-serif&amp;#34;&quot;&gt;1&lt;/span&gt;&lt;span style=&quot;font-size: 10.5pt&quot;&gt;万会员&lt;/span&gt;" style="shape=umlActor;verticalLabelPosition=bottom;verticalAlign=top;html=1;outlineConnect=0;" parent="1" vertex="1">
          <mxGeometry x="700" y="-190" width="60" height="120" as="geometry" />
        </mxCell>
        <mxCell id="9olRrJjh9QZigTU5JMxW-3" value="&lt;span lang=&quot;EN-US&quot; style=&quot;font-size: 10.5pt ; font-family: &amp;#34;calibri&amp;#34; , &amp;#34;sans-serif&amp;#34;&quot;&gt;399&lt;/span&gt;&lt;span style=&quot;font-size: 10.5pt&quot;&gt;会员&lt;/span&gt;" style="shape=umlActor;verticalLabelPosition=bottom;verticalAlign=top;html=1;outlineConnect=0;" parent="1" vertex="1">
          <mxGeometry x="1120" y="-190" width="60" height="120" as="geometry" />
        </mxCell>
        <mxCell id="9olRrJjh9QZigTU5JMxW-47" value="" style="edgeStyle=orthogonalEdgeStyle;rounded=0;orthogonalLoop=1;jettySize=auto;html=1;fontColor=#000000;" parent="1" source="9olRrJjh9QZigTU5JMxW-45" target="9olRrJjh9QZigTU5JMxW-46" edge="1">
          <mxGeometry relative="1" as="geometry" />
        </mxCell>
        <mxCell id="9olRrJjh9QZigTU5JMxW-49" value="" style="edgeStyle=orthogonalEdgeStyle;rounded=0;orthogonalLoop=1;jettySize=auto;html=1;fontColor=#000000;" parent="1" source="9olRrJjh9QZigTU5JMxW-45" target="9olRrJjh9QZigTU5JMxW-48" edge="1">
          <mxGeometry relative="1" as="geometry" />
        </mxCell>
        <mxCell id="MjXQz9QSF1dvT8xX9M8X-8" value="" style="edgeStyle=orthogonalEdgeStyle;rounded=0;orthogonalLoop=1;jettySize=auto;html=1;fontSize=20;fontColor=#000000;" parent="1" source="9olRrJjh9QZigTU5JMxW-45" target="MjXQz9QSF1dvT8xX9M8X-7" edge="1">
          <mxGeometry relative="1" as="geometry" />
        </mxCell>
        <mxCell id="9olRrJjh9QZigTU5JMxW-45" value="&lt;font face=&quot;calibri, sans-serif&quot;&gt;&lt;span style=&quot;font-size: 14px&quot;&gt;3万&lt;/span&gt;&lt;/font&gt;" style="shape=umlActor;verticalLabelPosition=bottom;verticalAlign=top;html=1;outlineConnect=0;" parent="1" vertex="1">
          <mxGeometry x="870" y="280" width="60" height="120" as="geometry" />
        </mxCell>
        <mxCell id="9olRrJjh9QZigTU5JMxW-51" value="" style="edgeStyle=orthogonalEdgeStyle;rounded=0;orthogonalLoop=1;jettySize=auto;html=1;fontColor=#000000;" parent="1" source="9olRrJjh9QZigTU5JMxW-46" target="9olRrJjh9QZigTU5JMxW-50" edge="1">
          <mxGeometry relative="1" as="geometry" />
        </mxCell>
        <mxCell id="9olRrJjh9QZigTU5JMxW-53" value="" style="edgeStyle=orthogonalEdgeStyle;rounded=0;orthogonalLoop=1;jettySize=auto;html=1;fontColor=#000000;" parent="1" source="9olRrJjh9QZigTU5JMxW-46" target="9olRrJjh9QZigTU5JMxW-52" edge="1">
          <mxGeometry relative="1" as="geometry" />
        </mxCell>
        <mxCell id="9olRrJjh9QZigTU5JMxW-46" value="&lt;font face=&quot;calibri, sans-serif&quot;&gt;&lt;span style=&quot;font-size: 14px&quot;&gt;1万&lt;/span&gt;&lt;/font&gt;" style="shape=umlActor;verticalLabelPosition=bottom;verticalAlign=top;html=1;outlineConnect=0;" parent="1" vertex="1">
          <mxGeometry x="310" y="476" width="60" height="120" as="geometry" />
        </mxCell>
        <mxCell id="9olRrJjh9QZigTU5JMxW-55" value="" style="edgeStyle=orthogonalEdgeStyle;rounded=0;orthogonalLoop=1;jettySize=auto;html=1;fontColor=#000000;" parent="1" source="9olRrJjh9QZigTU5JMxW-48" target="9olRrJjh9QZigTU5JMxW-54" edge="1">
          <mxGeometry relative="1" as="geometry" />
        </mxCell>
        <mxCell id="9olRrJjh9QZigTU5JMxW-57" value="" style="edgeStyle=orthogonalEdgeStyle;rounded=0;orthogonalLoop=1;jettySize=auto;html=1;fontColor=#000000;" parent="1" source="9olRrJjh9QZigTU5JMxW-48" target="9olRrJjh9QZigTU5JMxW-56" edge="1">
          <mxGeometry relative="1" as="geometry" />
        </mxCell>
        <mxCell id="9olRrJjh9QZigTU5JMxW-48" value="&lt;font face=&quot;calibri, sans-serif&quot;&gt;&lt;span style=&quot;font-size: 14px&quot;&gt;399&lt;/span&gt;&lt;/font&gt;" style="shape=umlActor;verticalLabelPosition=bottom;verticalAlign=top;html=1;outlineConnect=0;" parent="1" vertex="1">
          <mxGeometry x="1384" y="495" width="60" height="120" as="geometry" />
        </mxCell>
        <mxCell id="9olRrJjh9QZigTU5JMxW-59" value="" style="edgeStyle=orthogonalEdgeStyle;rounded=0;orthogonalLoop=1;jettySize=auto;html=1;fontColor=#000000;" parent="1" source="9olRrJjh9QZigTU5JMxW-50" target="9olRrJjh9QZigTU5JMxW-58" edge="1">
          <mxGeometry relative="1" as="geometry" />
        </mxCell>
        <mxCell id="9olRrJjh9QZigTU5JMxW-50" value="&lt;font face=&quot;calibri, sans-serif&quot;&gt;&lt;span style=&quot;font-size: 14px&quot;&gt;1万&lt;/span&gt;&lt;/font&gt;" style="shape=umlActor;verticalLabelPosition=bottom;verticalAlign=top;html=1;outlineConnect=0;" parent="1" vertex="1">
          <mxGeometry x="120" y="719" width="60" height="120" as="geometry" />
        </mxCell>
        <mxCell id="9olRrJjh9QZigTU5JMxW-90" value="" style="edgeStyle=orthogonalEdgeStyle;rounded=0;orthogonalLoop=1;jettySize=auto;html=1;fontSize=20;fontColor=#000000;" parent="1" source="9olRrJjh9QZigTU5JMxW-52" target="9olRrJjh9QZigTU5JMxW-89" edge="1">
          <mxGeometry relative="1" as="geometry" />
        </mxCell>
        <mxCell id="9olRrJjh9QZigTU5JMxW-52" value="&lt;font face=&quot;calibri, sans-serif&quot;&gt;&lt;span style=&quot;font-size: 14px&quot;&gt;399&lt;/span&gt;&lt;/font&gt;" style="shape=umlActor;verticalLabelPosition=bottom;verticalAlign=top;html=1;outlineConnect=0;" parent="1" vertex="1">
          <mxGeometry x="495" y="719" width="60" height="120" as="geometry" />
        </mxCell>
        <mxCell id="9olRrJjh9QZigTU5JMxW-54" value="&lt;font face=&quot;calibri, sans-serif&quot;&gt;&lt;span style=&quot;font-size: 14px&quot;&gt;399&lt;/span&gt;&lt;/font&gt;" style="shape=umlActor;verticalLabelPosition=bottom;verticalAlign=top;html=1;outlineConnect=0;" parent="1" vertex="1">
          <mxGeometry x="1170" y="710.5" width="60" height="120" as="geometry" />
        </mxCell>
        <mxCell id="9olRrJjh9QZigTU5JMxW-56" value="&lt;font face=&quot;calibri, sans-serif&quot;&gt;&lt;span style=&quot;font-size: 14px&quot;&gt;1万&lt;/span&gt;&lt;/font&gt;" style="shape=umlActor;verticalLabelPosition=bottom;verticalAlign=top;html=1;outlineConnect=0;" parent="1" vertex="1">
          <mxGeometry x="1620" y="710.5" width="60" height="120" as="geometry" />
        </mxCell>
        <mxCell id="9olRrJjh9QZigTU5JMxW-58" value="&lt;font face=&quot;calibri, sans-serif&quot;&gt;&lt;span style=&quot;font-size: 14px&quot;&gt;399&lt;/span&gt;&lt;/font&gt;" style="shape=umlActor;verticalLabelPosition=bottom;verticalAlign=top;html=1;outlineConnect=0;" parent="1" vertex="1">
          <mxGeometry x="120" y="1000" width="60" height="120" as="geometry" />
        </mxCell>
        <mxCell id="9olRrJjh9QZigTU5JMxW-60" value="&lt;font style=&quot;font-size: 18px&quot;&gt;H&lt;/font&gt;" style="text;html=1;strokeColor=none;fillColor=none;align=center;verticalAlign=middle;whiteSpace=wrap;rounded=0;labelBackgroundColor=none;fontColor=#000000;" parent="1" vertex="1">
          <mxGeometry x="130" y="1006" width="40" height="20" as="geometry" />
        </mxCell>
        <mxCell id="9olRrJjh9QZigTU5JMxW-61" value="&lt;span style=&quot;font-size: 18px&quot;&gt;D&lt;/span&gt;" style="text;html=1;strokeColor=none;fillColor=none;align=center;verticalAlign=middle;whiteSpace=wrap;rounded=0;labelBackgroundColor=none;fontColor=#000000;" parent="1" vertex="1">
          <mxGeometry x="131" y="725" width="40" height="20" as="geometry" />
        </mxCell>
        <mxCell id="9olRrJjh9QZigTU5JMxW-62" value="&lt;span style=&quot;font-size: 18px&quot;&gt;E&lt;/span&gt;" style="text;html=1;strokeColor=none;fillColor=none;align=center;verticalAlign=middle;whiteSpace=wrap;rounded=0;labelBackgroundColor=none;fontColor=#000000;" parent="1" vertex="1">
          <mxGeometry x="505" y="725" width="40" height="20" as="geometry" />
        </mxCell>
        <mxCell id="9olRrJjh9QZigTU5JMxW-63" value="&lt;span style=&quot;font-size: 18px&quot;&gt;F&lt;/span&gt;" style="text;html=1;strokeColor=none;fillColor=none;align=center;verticalAlign=middle;whiteSpace=wrap;rounded=0;labelBackgroundColor=none;fontColor=#000000;" parent="1" vertex="1">
          <mxGeometry x="1181" y="717.5" width="40" height="20" as="geometry" />
        </mxCell>
        <mxCell id="9olRrJjh9QZigTU5JMxW-64" value="&lt;span style=&quot;font-size: 18px&quot;&gt;G&lt;/span&gt;" style="text;html=1;strokeColor=none;fillColor=none;align=center;verticalAlign=middle;whiteSpace=wrap;rounded=0;labelBackgroundColor=none;fontColor=#000000;" parent="1" vertex="1">
          <mxGeometry x="1631" y="716.5" width="40" height="20" as="geometry" />
        </mxCell>
        <mxCell id="9olRrJjh9QZigTU5JMxW-65" value="&lt;span style=&quot;font-size: 18px&quot;&gt;B&lt;/span&gt;" style="text;html=1;strokeColor=none;fillColor=none;align=center;verticalAlign=middle;whiteSpace=wrap;rounded=0;labelBackgroundColor=none;fontColor=#000000;" parent="1" vertex="1">
          <mxGeometry x="321" y="482" width="40" height="20" as="geometry" />
        </mxCell>
        <mxCell id="9olRrJjh9QZigTU5JMxW-66" value="&lt;span style=&quot;font-size: 18px&quot;&gt;C&lt;/span&gt;" style="text;html=1;strokeColor=none;fillColor=none;align=center;verticalAlign=middle;whiteSpace=wrap;rounded=0;labelBackgroundColor=none;fontColor=#000000;" parent="1" vertex="1">
          <mxGeometry x="1394" y="501" width="40" height="20" as="geometry" />
        </mxCell>
        <mxCell id="9olRrJjh9QZigTU5JMxW-67" value="&lt;span style=&quot;font-size: 18px&quot;&gt;A&lt;/span&gt;" style="text;html=1;strokeColor=none;fillColor=none;align=center;verticalAlign=middle;whiteSpace=wrap;rounded=0;labelBackgroundColor=none;fontColor=#000000;" parent="1" vertex="1">
          <mxGeometry x="881" y="286" width="40" height="20" as="geometry" />
        </mxCell>
        <mxCell id="9olRrJjh9QZigTU5JMxW-77" value="B 购买1万产品&lt;br&gt;团队 A 获得 2000" style="rounded=1;whiteSpace=wrap;html=1;labelBackgroundColor=none;fillColor=#fff2cc;align=left;fontSize=20;spacingLeft=20;strokeColor=#d6b656;" parent="1" vertex="1">
          <mxGeometry x="109" y="425" width="190" height="90" as="geometry" />
        </mxCell>
        <mxCell id="9olRrJjh9QZigTU5JMxW-78" value="1." style="text;html=1;strokeColor=none;fillColor=none;align=center;verticalAlign=middle;whiteSpace=wrap;rounded=0;labelBackgroundColor=none;fontSize=20;fontColor=#000000;" parent="1" vertex="1">
          <mxGeometry x="69" y="405" width="40" height="20" as="geometry" />
        </mxCell>
        <mxCell id="9olRrJjh9QZigTU5JMxW-79" value="C 购买399产品&lt;br&gt;直推A 获得 399" style="rounded=1;whiteSpace=wrap;html=1;labelBackgroundColor=none;fillColor=#fff2cc;align=left;fontSize=20;spacingLeft=20;strokeColor=#d6b656;" parent="1" vertex="1">
          <mxGeometry x="1455" y="446" width="190" height="90" as="geometry" />
        </mxCell>
        <mxCell id="9olRrJjh9QZigTU5JMxW-80" value="2." style="text;html=1;strokeColor=none;fillColor=none;align=center;verticalAlign=middle;whiteSpace=wrap;rounded=0;labelBackgroundColor=none;fontSize=20;fontColor=#000000;" parent="1" vertex="1">
          <mxGeometry x="1430" y="426" width="40" height="20" as="geometry" />
        </mxCell>
        <mxCell id="9olRrJjh9QZigTU5JMxW-81" value="E 购买399产品&lt;br&gt;直推B 获得 300&lt;br&gt;团队A 获得 99" style="rounded=1;whiteSpace=wrap;html=1;labelBackgroundColor=none;fillColor=#d5e8d4;align=left;fontSize=20;spacingLeft=20;strokeColor=#82b366;" parent="1" vertex="1">
          <mxGeometry x="555" y="655" width="170" height="109" as="geometry" />
        </mxCell>
        <mxCell id="9olRrJjh9QZigTU5JMxW-82" value="4." style="text;html=1;strokeColor=none;fillColor=none;align=center;verticalAlign=middle;whiteSpace=wrap;rounded=0;labelBackgroundColor=none;fontSize=20;fontColor=#000000;" parent="1" vertex="1">
          <mxGeometry x="525" y="635" width="40" height="20" as="geometry" />
        </mxCell>
        <mxCell id="9olRrJjh9QZigTU5JMxW-83" value="D 购买1万产品&lt;br&gt;直推 B 获得 3000&lt;br&gt;团队 A 获得 2000" style="rounded=1;whiteSpace=wrap;html=1;labelBackgroundColor=none;fillColor=#d5e8d4;align=left;fontSize=20;spacingLeft=20;strokeColor=#82b366;" parent="1" vertex="1">
          <mxGeometry x="-65" y="669" width="190" height="90" as="geometry" />
        </mxCell>
        <mxCell id="9olRrJjh9QZigTU5JMxW-84" value="3." style="text;html=1;strokeColor=none;fillColor=none;align=center;verticalAlign=middle;whiteSpace=wrap;rounded=0;labelBackgroundColor=none;fontSize=20;fontColor=#000000;" parent="1" vertex="1">
          <mxGeometry x="-90" y="649" width="40" height="20" as="geometry" />
        </mxCell>
        <mxCell id="9olRrJjh9QZigTU5JMxW-85" value="F 购买399产品&lt;br&gt;直推C 获得 100&lt;br&gt;团队A 获得 299" style="rounded=1;whiteSpace=wrap;html=1;labelBackgroundColor=none;fillColor=#d5e8d4;align=left;fontSize=20;spacingLeft=20;strokeColor=#82b366;" parent="1" vertex="1">
          <mxGeometry x="1240" y="710.5" width="190" height="90" as="geometry" />
        </mxCell>
        <mxCell id="9olRrJjh9QZigTU5JMxW-86" value="5." style="text;html=1;strokeColor=none;fillColor=none;align=center;verticalAlign=middle;whiteSpace=wrap;rounded=0;labelBackgroundColor=none;fontSize=20;fontColor=#000000;" parent="1" vertex="1">
          <mxGeometry x="1210" y="690.5" width="40" height="20" as="geometry" />
        </mxCell>
        <mxCell id="9olRrJjh9QZigTU5JMxW-87" value="H 购买399产品&lt;br&gt;直推 D 获得 300&lt;br&gt;团队 A 获得 99" style="rounded=1;whiteSpace=wrap;html=1;labelBackgroundColor=none;fillColor=#e1d5e7;align=left;fontSize=20;spacingLeft=20;strokeColor=#9673a6;" parent="1" vertex="1">
          <mxGeometry x="195" y="1010" width="190" height="90" as="geometry" />
        </mxCell>
        <mxCell id="9olRrJjh9QZigTU5JMxW-88" value="6." style="text;html=1;strokeColor=none;fillColor=none;align=center;verticalAlign=middle;whiteSpace=wrap;rounded=0;labelBackgroundColor=none;fontSize=20;fontColor=#000000;" parent="1" vertex="1">
          <mxGeometry x="170" y="990" width="40" height="20" as="geometry" />
        </mxCell>
        <mxCell id="9olRrJjh9QZigTU5JMxW-89" value="&lt;font face=&quot;calibri, sans-serif&quot;&gt;&lt;span style=&quot;font-size: 14px&quot;&gt;399&lt;/span&gt;&lt;/font&gt;" style="shape=umlActor;verticalLabelPosition=bottom;verticalAlign=top;html=1;outlineConnect=0;" parent="1" vertex="1">
          <mxGeometry x="495" y="1001" width="60" height="120" as="geometry" />
        </mxCell>
        <mxCell id="9olRrJjh9QZigTU5JMxW-91" value="&lt;span style=&quot;font-size: 18px&quot;&gt;I&lt;/span&gt;" style="text;html=1;strokeColor=none;fillColor=none;align=center;verticalAlign=middle;whiteSpace=wrap;rounded=0;labelBackgroundColor=none;fontColor=#000000;" parent="1" vertex="1">
          <mxGeometry x="506" y="1007" width="40" height="20" as="geometry" />
        </mxCell>
        <mxCell id="9olRrJjh9QZigTU5JMxW-92" value="I 购买399产品&lt;br&gt;直推 E 获得 100&lt;br&gt;团队 B 获得 200&lt;br&gt;团队 A 获得99" style="rounded=1;whiteSpace=wrap;html=1;labelBackgroundColor=none;fillColor=#e1d5e7;align=left;fontSize=20;spacingLeft=20;strokeColor=#9673a6;" parent="1" vertex="1">
          <mxGeometry x="590" y="1021" width="255" height="119" as="geometry" />
        </mxCell>
        <mxCell id="9olRrJjh9QZigTU5JMxW-93" value="7." style="text;html=1;strokeColor=none;fillColor=none;align=center;verticalAlign=middle;whiteSpace=wrap;rounded=0;labelBackgroundColor=none;fontSize=20;fontColor=#000000;" parent="1" vertex="1">
          <mxGeometry x="565" y="1001" width="40" height="20" as="geometry" />
        </mxCell>
        <mxCell id="MjXQz9QSF1dvT8xX9M8X-2" value="&lt;span style=&quot;font-size: 18px&quot;&gt;每天打卡50积分&lt;/span&gt;" style="rounded=1;whiteSpace=wrap;html=1;labelBackgroundColor=none;fillColor=#FFFFFF;fontSize=20;fontColor=#000000;align=left;spacingTop=0;spacingLeft=9;" parent="1" vertex="1">
          <mxGeometry x="770" y="-190" width="150" height="60" as="geometry" />
        </mxCell>
        <mxCell id="MjXQz9QSF1dvT8xX9M8X-3" value="&lt;font style=&quot;font-size: 18px&quot;&gt;每月获得&amp;nbsp;&lt;/font&gt;&lt;span style=&quot;font-size: 18px ; text-indent: 0cm&quot;&gt;1000积分&lt;/span&gt;&lt;span style=&quot;font-size: 18px&quot;&gt;&lt;br&gt;每天打卡50积分&lt;/span&gt;" style="rounded=1;whiteSpace=wrap;html=1;labelBackgroundColor=none;fillColor=#FFFFFF;fontSize=20;fontColor=#000000;align=left;spacingTop=0;spacingLeft=9;" parent="1" vertex="1">
          <mxGeometry x="1200" y="-190" width="190" height="60" as="geometry" />
        </mxCell>
        <mxCell id="MjXQz9QSF1dvT8xX9M8X-4" value="&lt;span style=&quot;font-size: 18px&quot;&gt;每天打卡50积分&lt;/span&gt;" style="rounded=1;whiteSpace=wrap;html=1;labelBackgroundColor=none;fillColor=#FFFFFF;fontSize=20;fontColor=#000000;align=left;spacingTop=0;spacingLeft=9;" parent="1" vertex="1">
          <mxGeometry x="360" y="-190" width="150" height="60" as="geometry" />
        </mxCell>
        <mxCell id="MjXQz9QSF1dvT8xX9M8X-5" value="G 购买1万产品&lt;br&gt;团队 A 获得 2000" style="rounded=1;whiteSpace=wrap;html=1;labelBackgroundColor=none;fillColor=#d5e8d4;align=left;fontSize=20;spacingLeft=20;strokeColor=#82b366;" parent="1" vertex="1">
          <mxGeometry x="1711" y="710.5" width="190" height="90" as="geometry" />
        </mxCell>
        <mxCell id="MjXQz9QSF1dvT8xX9M8X-6" value="8." style="text;html=1;strokeColor=none;fillColor=none;align=center;verticalAlign=middle;whiteSpace=wrap;rounded=0;labelBackgroundColor=none;fontSize=20;fontColor=#000000;" parent="1" vertex="1">
          <mxGeometry x="1671" y="690.5" width="40" height="20" as="geometry" />
        </mxCell>
        <mxCell id="MjXQz9QSF1dvT8xX9M8X-7" value="&lt;font face=&quot;calibri, sans-serif&quot;&gt;&lt;span style=&quot;font-size: 14px&quot;&gt;3万&lt;/span&gt;&lt;/font&gt;" style="shape=umlActor;verticalLabelPosition=bottom;verticalAlign=top;html=1;outlineConnect=0;" parent="1" vertex="1">
          <mxGeometry x="870" y="576.5" width="60" height="120" as="geometry" />
        </mxCell>
        <mxCell id="MjXQz9QSF1dvT8xX9M8X-10" value="J 购买3万产品&lt;br&gt;直推A 获得 9000" style="rounded=1;whiteSpace=wrap;html=1;labelBackgroundColor=none;fillColor=#f8cecc;align=left;fontSize=20;spacingLeft=20;strokeColor=#b85450;" parent="1" vertex="1">
          <mxGeometry x="820" y="730.5" width="190" height="90" as="geometry" />
        </mxCell>
        <mxCell id="MjXQz9QSF1dvT8xX9M8X-11" value="0." style="text;html=1;strokeColor=none;fillColor=none;align=center;verticalAlign=middle;whiteSpace=wrap;rounded=0;labelBackgroundColor=none;fontSize=20;fontColor=#000000;" parent="1" vertex="1">
          <mxGeometry x="940" y="546.5" width="40" height="20" as="geometry" />
        </mxCell>
        <mxCell id="MjXQz9QSF1dvT8xX9M8X-12" value="&lt;span style=&quot;font-size: 18px&quot;&gt;J&lt;/span&gt;" style="text;html=1;strokeColor=none;fillColor=none;align=center;verticalAlign=middle;whiteSpace=wrap;rounded=0;labelBackgroundColor=none;fontColor=#000000;" parent="1" vertex="1">
          <mxGeometry x="881" y="582.5" width="40" height="20" as="geometry" />
        </mxCell>
        <mxCell id="4uzBJFD4xRu4iT5XEhBd-1" value="13300000000" style="text;html=1;align=center;verticalAlign=middle;resizable=0;points=[];autosize=1;fontSize=18;fontStyle=1" vertex="1" parent="1">
          <mxGeometry x="920" y="281" width="130" height="30" as="geometry" />
        </mxCell>
        <mxCell id="4uzBJFD4xRu4iT5XEhBd-2" value="13300000001" style="text;html=1;align=center;verticalAlign=middle;resizable=0;points=[];autosize=1;fontSize=18;fontStyle=1" vertex="1" parent="1">
          <mxGeometry x="350" y="477" width="130" height="30" as="geometry" />
        </mxCell>
        <mxCell id="4uzBJFD4xRu4iT5XEhBd-3" value="13300000002" style="text;html=1;align=center;verticalAlign=middle;resizable=0;points=[];autosize=1;fontSize=18;fontStyle=1" vertex="1" parent="1">
          <mxGeometry x="1254" y="495" width="130" height="30" as="geometry" />
        </mxCell>
        <mxCell id="4uzBJFD4xRu4iT5XEhBd-4" value="13300000003" style="text;html=1;align=center;verticalAlign=middle;resizable=0;points=[];autosize=1;fontSize=18;fontStyle=1" vertex="1" parent="1">
          <mxGeometry x="171" y="729" width="130" height="30" as="geometry" />
        </mxCell>
        <mxCell id="4uzBJFD4xRu4iT5XEhBd-5" value=" SH20201015112202245290                                                                                " style="text;html=1;align=center;verticalAlign=middle;resizable=0;points=[];autosize=1;fontSize=18;" vertex="1" parent="1">
          <mxGeometry x="100" y="400" width="240" height="30" as="geometry" />
        </mxCell>
        <mxCell id="4uzBJFD4xRu4iT5XEhBd-6" value="  SH20201015141149524982                                                                                " style="text;html=1;align=center;verticalAlign=middle;resizable=0;points=[];autosize=1;fontSize=18;" vertex="1" parent="1">
          <mxGeometry x="1559" y="435" width="240" height="30" as="geometry" />
        </mxCell>
        <mxCell id="4uzBJFD4xRu4iT5XEhBd-7" value="SH20201015134304329562                                                                                " style="text;html=1;align=center;verticalAlign=middle;resizable=0;points=[];autosize=1;fontSize=18;" vertex="1" parent="1">
          <mxGeometry x="-69" y="644" width="240" height="30" as="geometry" />
        </mxCell>
        <mxCell id="4uzBJFD4xRu4iT5XEhBd-8" value="&lt;span style=&quot;font-weight: 700&quot;&gt;13300000004&lt;/span&gt;" style="text;html=1;align=center;verticalAlign=middle;resizable=0;points=[];autosize=1;fontSize=18;" vertex="1" parent="1">
          <mxGeometry x="370" y="730.5" width="130" height="30" as="geometry" />
        </mxCell>
        <mxCell id="4uzBJFD4xRu4iT5XEhBd-9" value="SH20201015141001084445                                                                                " style="text;html=1;align=center;verticalAlign=middle;resizable=0;points=[];autosize=1;fontSize=18;" vertex="1" parent="1">
          <mxGeometry x="555" y="630" width="240" height="30" as="geometry" />
        </mxCell>
        <mxCell id="4uzBJFD4xRu4iT5XEhBd-10" value="测试有误，手动降级重新测试" style="shape=callout;whiteSpace=wrap;html=1;perimeter=calloutPerimeter;fontSize=18;size=28;position=0.44;" vertex="1" parent="1">
          <mxGeometry x="567.5" y="550" width="160" height="80" as="geometry" />
        </mxCell>
        <mxCell id="4uzBJFD4xRu4iT5XEhBd-11" value="测试有误，手动降级重新测试" style="shape=callout;whiteSpace=wrap;html=1;perimeter=calloutPerimeter;fontSize=18;size=28;position=0.44;" vertex="1" parent="1">
          <mxGeometry x="1476" y="341" width="160" height="80" as="geometry" />
        </mxCell>
        <mxCell id="4uzBJFD4xRu4iT5XEhBd-12" value="13300000006" style="text;html=1;align=center;verticalAlign=middle;resizable=0;points=[];autosize=1;fontSize=18;fontStyle=1" vertex="1" parent="1">
          <mxGeometry y="1001" width="130" height="30" as="geometry" />
        </mxCell>
      </root>
    </mxGraphModel>
  </diagram>
</mxfile>
